#!OML:ASF F:\VICON\USERDATA\INSTALL\rory3\rory3.ASF
:FULLY-SPECIFIED
:DEGREES
108
root 1.49726181279593 17.905224713315768 55.15528200412624 -3.0910698067225884 -0.5206766784732639 0.03482469427586121
lfemur 11.607977962652493 -3.61259169360806 -23.23391964952308
ltibia 32.78685740084082
lfoot -4.715998041019274 -4.923067786698153
ltoes -6.897064477004696
rfemur -22.975138152482867 0.2339827399173091 24.231323416371747
rtibia 31.346253403117235
rfoot -9.499103682622671 -7.297043615321896
rtoes 3.247242607919324
lowerback nan -2.3926192684216474 -2.770843618828777
upperback -0.358505657773724 -3.3876863911963198 1.9872859249376325
thorax -5.721229949204962 -1.6059005799148192 4.399285663859324
lowerneck -16.63571073655527 -3.0821273250861356 -2.1181721028148024
upperneck 22.22415284769391 -3.9440029960242553 1.1590852923791541
head 9.947725715302052 -1.8932396539463883 0.271913652803912
lclavicle -2.5671712621620114e-15 -2.7633312164079345e-15
lhumerus -28.61353974386568 1.3709360015498633 81.87296023113382
lradius 22.979577943615848
lwrist 9.638280512980517
lhand -29.329089217662528 18.8059831576928
lfingers nan
lthumb -2.5564325152368386 48.80598794784782
rclavicle -2.545597559292758e-15 -2.7531800923911197e-15
rhumerus -32.296986514880004 -20.978612774118762 -76.88289749945841
rradius 31.264634055154136
rwrist 2.0277016956058116
rhand -18.057408288802407 nan
rfingers nan
rthumb 8.773961509315209 -7.197397032525666
109
root 1.4933587631990526 17.905932470022243 54.525386295692215 -2.920368617350427 -0.7515165825431993 -1.2532194512543544
lfemur 9.90175751232429 -3.05312989339037 -21.05303309857282
ltibia 38.051938910785346
lfoot -5.2342304165099796 -3.177633525657117
ltoes -7.883633015115903
rfemur -21.668701653694026 0.9212795766027357 25.84832163586972
rtibia 29.85311511197558
rfoot -10.39066822660535 -8.658467563299968
rtoes 3.977747721663657
lowerback nan -2.277134991164723 -1.739668288793898
upperback -0.3730476534980263 -3.138628111752694 2.166104300152125
thorax -5.7774768737231526 -1.5131208703743564 4.2182829309971845
lowerneck -16.665013330640814 -3.098090424088199 -2.062408192355057
upperneck 22.12035320852318 -3.966951182373995 1.0879211970036982
head 9.899416461964444 -1.9070092173421187 0.2376562013634106
lclavicle -2.5659037225408873e-15 -2.762928117351646e-15
lhumerus -29.012040223391956 1.7948089250304031 82.08863174791017
lradius 22.597215854974404
lwrist 9.944423078613651
lhand -29.4376583655242 18.673638255978737
lfingers nan
lthumb -2.6244224476233002 48.77711419398113
rclavicle -2.5468738928069903e-15 -2.754225611849109e-15
rhumerus -32.591538083703014 -21.21550038033038 -76.68998849833015
rradius 31.36771606744196
rwrist 2.1076545035034373
rhand -18.054229064111528 nan
rfingers nan
rthumb 8.764624498297895 -7.230567058418136
110
root 1.4910567247836721 17.91205591878265 53.9973823573296 -2.7881688591883287 -0.9416970956540266 -2.345275937673673
lfemur 7.666721717593001 -2.4197685496281305 -18.87917921507503
ltibia 43.4531665711656
lfoot -6.131990859381755 -2.5080732591614465
ltoes -7.692395944285632
rfemur -19.800430310930594 1.5302162576330187 27.33149019555395
rtibia 29.180711416884495
rfoot -11.651610989369058 -9.701788327078528
rtoes 3.9887632114321065
lowerback nan -2.1064460398329614 -0.8659083210337302
upperback -0.37391715840042417 -2.8130308140286004 2.3018062099398984
thorax -5.861900975647737 -1.378708376627548 4.007324819112306
lowerneck -16.725034841974058 -3.122027332550403 -1.9636489549546052
upperneck 22.00365566276117 -4.007865615577219 1.0317603927963082
head 9.847452865585192 -1.9263833875570464 0.20307884219658426
lclavicle -2.5653947273685277e-15 -2.7632995198407635e-15
lhumerus -29.34639789403139 2.302436247686418 82.28990960722025
lradius 22.36088791524356
lwrist 10.150650068975688
lhand -29.578114333567623 18.546999756249647
lfingers nan
lthumb -2.7990224509233306 48.553111865601316
rclavicle -2.5467777299886924e-15 -2.754698300699085e-15
rhumerus -32.79072839595922 -21.40962473948616 -76.51271673247645
rradius 31.428006267115155
rwrist 2.2106991968065755
rhand -18.05578089232101 nan
rfingers nan
rthumb 8.77574506324966 -7.223979284467199
111
root 1.4889524173136093 17.911524355900514 53.15363390339373 -2.897989053655293 -1.174657538290722 -3.0163292962709836
lfemur 5.008165905405063 -1.7536906043234677 -17.023265408208417
ltibia 48.61715404394834
lfoot -5.8423309502757625 -1.144504308992205
ltoes -10.240285644070585
rfemur -17.151197971672733 1.967686196296713 28.501853900906422
rtibia 28.74497650069909
rfoot -13.12106171670284 -10.523511798388059
rtoes 3.2107782519114183
lowerback nan -1.839016105896692 -0.2593883303243667
upperback -0.33753129291806516 -2.381338542338294 2.375596641340192
thorax -5.935485478200636 -1.192408204515541 3.74432809797611
lowerneck -16.803665787766693 -3.1608197195498975 -1.8325101156694332
upperneck 21.87514399746485 -4.077801337737453 0.9921429082656972
head 9.79602302467786 -1.9552847651081529 0.16497958338450391
lclavicle -2.5652360707674766e-15 -2.7640087531232774e-15
lhumerus -29.623449209871698 2.812889256130373 82.4648443108171
lradius 22.252229264053412
lwrist 10.327833547471304
lhand -29.70879070857093 18.471092297677103
lfingers nan
lthumb -2.8789160993340794 48.59783587558263
rclavicle -2.545266737570579e-15 -2.7544352327074246e-15
rhumerus -32.915007363021694 -21.596925344192428 -76.37446946102723
rradius 31.436557480025257
rwrist 2.306675212985599
rhand -18.053703331052446 nan
rfingers nan
rthumb 8.76229936626892 -7.269938167753709
